<svg fill="none" height="26" viewBox="0 0 25 26" width="25" xmlns="http://www.w3.org/2000/svg" xmlns:xlink="http://www.w3.org/1999/xlink"><filter id="a" color-interpolation-filters="sRGB" filterUnits="userSpaceOnUse" height="25.125" width="24.3" x="0" y="0"><feFlood flood-opacity="0" result="BackgroundImageFix"/><feColorMatrix in="SourceAlpha" result="hardAlpha" type="matrix" values="0 0 0 0 0 0 0 0 0 0 0 0 0 0 0 0 0 0 127 0"/><feOffset dx=".3" dy="1.125"/><feComposite in2="hardAlpha" operator="out"/><feColorMatrix type="matrix" values="0 0 0 0 0.180392 0 0 0 0 0.0784314 0 0 0 0 0.00392157 0 0 0 1 0"/><feBlend in2="BackgroundImageFix" mode="normal" result="effect1_dropShadow_458_228"/><feBlend in="SourceGraphic" in2="effect1_dropShadow_458_228" mode="normal" result="shape"/></filter><g filter="url(#a)"><path d="m10.7918.735436c.507-.980581 1.9094-.980581 2.4164 0l3.2286 6.244294c.1293.25022.3332.4541.5835.58349l6.2442 3.22858c.9807.507.9807 1.9094 0 2.4164l-6.2442 3.2286c-.2503.1293-.4542.3332-.5835.5835l-3.2286 6.2442c-.507.9807-1.9094.9807-2.4164 0l-3.22858-6.2442c-.12939-.2503-.33327-.4542-.58349-.5835l-6.244294-3.2286c-.980581-.507-.980581-1.9094 0-2.4164l6.244294-3.22858c.25022-.12939.4541-.33327.58349-.58349z" fill="#fc8ae5"/><path d="m11.125.907227c.3673-.709727 1.3827-.709724 1.75 0l3.2285 6.245113c.165.31902.4251.57912.7442.74414l6.2451 3.22852c.7097.3673.7097 1.3827 0 1.75l-6.2451 3.2285c-.3191.165-.5792.4251-.7442.7442l-3.2285 6.2451c-.3673.7097-1.3827.7097-1.75 0l-3.22852-6.2451c-.16502-.3191-.42512-.5792-.74414-.7442l-6.245113-3.2285c-.709724-.3673-.709727-1.3827 0-1.75l6.245113-3.22852c.31903-.16502.57912-.42511.74414-.74414z" stroke="#2e1401" stroke-width=".75"/></g></svg>